<?xml version="1.0" encoding="UTF-8"?>
<svg version="1.1" xmlns="http://www.w3.org/2000/svg" width="512" height="512">
<path d="M0 0 C1.81951172 0.32677734 1.81951172 0.32677734 3.67578125 0.66015625 C10.85279599 2.07089062 17.31731604 4.0691806 24 7 C25.02480469 7.40476562 26.04960937 7.80953125 27.10546875 8.2265625 C28.16378906 8.64679688 29.22210938 9.06703125 30.3125 9.5 C31.76076172 10.07234375 31.76076172 10.07234375 33.23828125 10.65625 C36.20808376 12.10124585 38.4511746 13.91653803 41 16 C41.99 16.33 42.98 16.66 44 17 C44.66 17.66 45.32 18.32 46 19 C46.66 19.33 47.32 19.66 48 20 C51 22 51 22 53 24 C53.66 24.33 54.32 24.66 55 25 C55.433125 26.2375 55.433125 26.2375 55.875 27.5 C56.24625 28.325 56.6175 29.15 57 30 C57.598125 30.144375 58.19625 30.28875 58.8125 30.4375 C62.36930383 31.3521067 63.81665271 34.18463112 66 37 C68.64850992 39.64850992 71.66206447 41.33103223 75 43 C74.67 43.66 74.34 44.32 74 45 C74 45.66 74 46.32 74 47 C75.65 47.33 77.3 47.66 79 48 C78.6596875 48.8971875 78.6596875 48.8971875 78.3125 49.8125 C77.73524913 52.05514216 77.73524913 52.05514216 79.25 53.75 C81.04843652 55.2906191 81.04843652 55.2906191 84 55 C85 58 85 58 85 61 C85.62599617 62.68236471 86.28752268 64.3523962 87 66 C88.485 65.505 88.485 65.505 90 65 C94.1799078 73.16195013 97.65425519 81.33816422 100.3125 90.125 C100.55436035 90.91036133 100.7962207 91.69572266 101.04541016 92.50488281 C104.79520992 105.37417444 105.34684083 118.05521511 105.31567383 131.36352539 C105.31252498 134.16527681 105.33601301 136.9659572 105.36132812 139.76757812 C105.40276056 151.48921336 104.3488687 162.52088624 102 174 C101.80124268 175.00538818 101.60248535 176.01077637 101.39770508 177.04663086 C100.88976692 179.50155009 100.33727122 181.93795155 99.75 184.375 C99.54455566 185.23367676 99.33911133 186.09235352 99.12744141 186.97705078 C96.14087313 198.98239886 91.98042858 210.68084414 87 222 C86.01 222 85.02 222 84 222 C83.43285278 223.10456543 83.43285278 223.10456543 82.85424805 224.23144531 C81.44264914 226.97630513 80.02773773 229.71942425 78.6105957 232.46142578 C77.69943457 234.22687579 76.79207414 235.99428569 75.88476562 237.76171875 C75.30791016 238.87675781 74.73105469 239.99179687 74.13671875 241.140625 C73.34334106 242.68024902 73.34334106 242.68024902 72.53393555 244.25097656 C71 247 71 247 69.28442383 249.19433594 C67.69092147 251.00893291 67.69092147 251.00893291 68.3125 253.75 C68.539375 254.4925 68.76625 255.235 69 256 C68.34 256.33 67.68 256.66 67 257 C66.67 257.66 66.34 258.32 66 259 C65.08154297 259.17595703 65.08154297 259.17595703 64.14453125 259.35546875 C61.1666636 260.2504563 60.37819418 261.74918947 58.6875 264.3125 C58.15511719 265.09238281 57.62273437 265.87226563 57.07421875 266.67578125 C55.77683879 268.92818188 55.77683879 268.92818188 56.33203125 271.29296875 C56.55246094 271.85628906 56.77289063 272.41960937 57 273 C56.113125 273.185625 55.22625 273.37125 54.3125 273.5625 C49.39410609 275.69689736 47.14107508 279.43258107 45 284.25 C44 286 44 286 41.91796875 287.14453125 C37.84934336 289.73167591 34.69096956 293.01970781 31.3125 296.4375 C30.63638672 297.10587891 29.96027344 297.77425781 29.26367188 298.46289062 C28.61591797 299.11322266 27.96816406 299.76355469 27.30078125 300.43359375 C26.42160034 301.31615845 26.42160034 301.31615845 25.5246582 302.21655273 C23.95797966 304.04915269 23.06762462 305.85311839 22 308 C20 309.125 20 309.125 18 310 C15.83321744 311.87300043 15.83321744 311.87300043 15.125 314.5625 C14.75375 315.366875 14.3825 316.17125 14 317 C11.9375 317.625 11.9375 317.625 10 318 C9.67 318.99 9.34 319.98 9 321 C7.67203709 321.35412344 6.33783393 321.68521554 5 322 C3.45833358 323.37485532 3.45833358 323.37485532 2 325 C1.29875 325.515625 0.5975 326.03125 -0.125 326.5625 C-2.11965942 327.87454862 -2.11965942 327.87454862 -3 330 C-3.5775 330.12375 -4.155 330.2475 -4.75 330.375 C-7.78982897 331.21939694 -9.58260751 333.0056512 -12 335 C-12.721875 335.350625 -13.44375 335.70125 -14.1875 336.0625 C-16.34509852 336.99309803 -16.34509852 336.99309803 -18 340 C-20 340.66666667 -22 341.33333333 -24 342 C-24.66 342.99 -25.32 343.98 -26 345 C-26.99 345 -27.98 345 -29 345 C-29.66 345.66 -30.32 346.32 -31 347 C-31.66 347.66 -32.32 348.32 -33 349 C-33.99 349 -34.98 349 -36 349 C-36.8971875 349.928125 -36.8971875 349.928125 -37.8125 350.875 C-40.41500617 353.40314885 -42.54915971 353.99350491 -46 355 C-47.34882408 355.63474075 -48.6846659 356.29848848 -50 357 C-50.66 357.309375 -51.32 357.61875 -52 357.9375 C-54.05867864 358.95196163 -54.05867864 358.95196163 -55.875 360.5 C-58.45912549 362.32408858 -61.00162369 363.00054123 -64 364 C-65.18034879 364.64213106 -66.34688106 365.31016505 -67.5 366 C-70.56765627 367.82710956 -73.59129103 368.91211416 -77 370 C-78.4540625 370.7425 -78.4540625 370.7425 -79.9375 371.5 C-83.24732905 373.12114076 -86.45525817 373.99565648 -90 375 C-91.56899974 375.60849903 -93.13108325 376.23500143 -94.6875 376.875 C-100.37145943 379.19673835 -106.16531118 381.09674508 -112 383 C-115.13607452 384.0540488 -118.27137154 385.11036863 -121.40625 386.16796875 C-129.11121337 388.63959104 -133.97658581 388.19442274 -141.4140625 385.01171875 C-144.54225263 383.7878498 -147.63416182 383.14779869 -150.91796875 382.4921875 C-154.11971006 381.73530306 -157.00232049 380.33824978 -160 379 C-161.49485101 378.48481028 -162.99524051 377.98548828 -164.5 377.5 C-168.44408979 376.21634177 -172.19908425 374.66706831 -176 373 C-177.52036775 372.41545428 -179.04124717 371.83223846 -180.5625 371.25 C-186.12577585 369.05195227 -191.39810262 366.33446719 -196.703125 363.5859375 C-199.76375602 362.11364343 -202.77808304 361.05224456 -206 360 C-207.33333333 359 -208.66666667 358 -210 357 C-211.99571323 356.32060826 -213.99594773 355.65438441 -216 355 C-218.73905415 353.50597047 -220.79424117 352.20575883 -223 350 C-223.825 349.67 -224.65 349.34 -225.5 349 C-228 348 -228 348 -230 346 C-230.99 345.67 -231.98 345.34 -233 345 C-233.66 344.34 -234.32 343.68 -235 343 C-236.32510482 342.33744759 -237.65855152 341.69130398 -239 341.0625 C-241 340 -241 340 -243 338 C-243.66 337.67 -244.32 337.34 -245 337 C-248 335 -248 335 -250.5625 332.9375 C-252.82757359 331.00018701 -252.82757359 331.00018701 -255 330 C-258 328 -258 328 -260 326 C-260.66 325.67 -261.32 325.34 -262 325 C-262.66 324.34 -263.32 323.68 -264 323 C-264.66 322.67 -265.32 322.34 -266 322 C-267.125 319.9375 -267.125 319.9375 -268 318 C-268.99 318 -269.98 318 -271 318 C-271.2475 317.195625 -271.495 316.39125 -271.75 315.5625 C-272.1625 314.716875 -272.575 313.87125 -273 313 C-274.33076989 312.65657551 -275.66431979 312.32380126 -277 312 C-278.75 309.4375 -278.75 309.4375 -280 307 C-280.33 307.66 -280.66 308.32 -281 309 C-284 308 -284 308 -284.94946289 306.19213867 C-285.29614014 305.46873291 -285.64281738 304.74532715 -286 304 C-287.22063718 302.59781723 -288.49621623 301.24249568 -289.80859375 299.92578125 C-290.55560547 299.17619141 -291.30261719 298.42660156 -292.07226562 297.65429688 C-292.85279297 296.88150391 -293.63332031 296.10871094 -294.4375 295.3125 C-295.21416016 294.52810547 -295.99082031 293.74371094 -296.79101562 292.93554688 C-297.9134668 291.81696289 -297.9134668 291.81696289 -299.05859375 290.67578125 C-299.74236084 289.99427002 -300.42612793 289.31275879 -301.13061523 288.6105957 C-303.0091417 286.78603548 -303.0091417 286.78603548 -306 286 C-305.67 285.34 -305.34 284.68 -305 284 C-305 280.72896302 -307.25077036 278.93750875 -309.33203125 276.5546875 C-311.44317685 274.58692181 -313.13144287 274.08436933 -316 274 C-315.7525 273.4225 -315.505 272.845 -315.25 272.25 C-314.71589242 269.82566126 -314.71589242 269.82566126 -316.75 267.75 C-318.91960301 265.69302969 -318.91960301 265.69302969 -322 266 C-321.773125 265.401875 -321.54625 264.80375 -321.3125 264.1875 C-320.73524913 261.94485784 -320.73524913 261.94485784 -322.25 260.25 C-324.04843652 258.7093809 -324.04843652 258.7093809 -327 259 C-326.7525 258.443125 -326.505 257.88625 -326.25 257.3125 C-325.73348225 254.78693607 -325.73348225 254.78693607 -327.75 252.25 C-328.86375 251.13625 -328.86375 251.13625 -330 250 C-330.99 250 -331.98 250 -333 250 C-332.77441406 249.28457031 -332.54882812 248.56914062 -332.31640625 247.83203125 C-331.90456796 244.14582435 -332.93324374 242.75523918 -334.9375 239.6875 C-335.50339844 238.80449219 -336.06929688 237.92148437 -336.65234375 237.01171875 C-337.09707031 236.34785156 -337.54179687 235.68398438 -338 235 C-338.99 235.33 -339.98 235.66 -341 236 C-341.69937202 234.5682384 -342.38412718 233.12932968 -343.0625 231.6875 C-343.44535156 230.88699219 -343.82820313 230.08648437 -344.22265625 229.26171875 C-345 227 -345 227 -344 224 C-344.69480886 221.64197142 -344.69480886 221.64197142 -345.87890625 219.08984375 C-346.30276611 218.10935059 -346.72662598 217.12885742 -347.16333008 216.11865234 C-347.62505615 215.06887207 -348.08678223 214.0190918 -348.5625 212.9375 C-366.57773364 170.72930492 -374.51525801 125.48212566 -358.01757812 81.47998047 C-356.1836863 77.01052915 -353.94073258 72.77626191 -351.48950195 68.61669922 C-349.56489589 65.33004225 -349 63.95174068 -349 60 C-348.67 59.34 -348.34 58.68 -348 58 C-347.37351562 57.87238281 -346.74703125 57.74476562 -346.1015625 57.61328125 C-343.30906774 56.79837107 -342.80404718 55.67219817 -341.375 53.1875 C-340.97023438 52.50042969 -340.56546875 51.81335938 -340.1484375 51.10546875 C-338.96994279 49.02932238 -338.96994279 49.02932238 -338.1015625 46.86328125 C-336.71387698 44.51602596 -335.44787893 44.12979028 -333 43 C-328.23690385 39.0097836 -324.2586748 35.29337398 -323 29 C-321.68 29.33 -320.36 29.66 -319 30 C-318.67 28.35 -318.34 26.7 -318 25 C-317.1646875 24.87625 -317.1646875 24.87625 -316.3125 24.75 C-313.30743682 23.77538491 -311.42745178 21.99175531 -309 20 C-308.01 19.67 -307.02 19.34 -306 19 C-305.34 18.01 -304.68 17.02 -304 16 C-303.01 16 -302.02 16 -301 16 C-300.566875 15.54625 -300.13375 15.0925 -299.6875 14.625 C-297.39784359 12.42014568 -295.00824154 11.96263729 -292 11 C-291.278125 10.525625 -290.55625 10.05125 -289.8125 9.5625 C-286.30074252 7.61152362 -282.79220279 6.73518717 -278.9140625 5.74609375 C-276.80010775 5.20485333 -274.69690418 4.62105374 -272.6015625 4.01171875 C-252.9240946 -1.51589967 -231.03034301 -2.15507831 -211 2 C-210.17113281 2.15597656 -209.34226563 2.31195313 -208.48828125 2.47265625 C-197.74065641 4.64407791 -181.32932605 8.57404301 -173.46484375 16.55859375 C-171.94926795 18.26134744 -171.94926795 18.26134744 -169 19 C-160 25 -160 25 -158 27 C-157.34 27.33 -156.68 27.66 -156 28 C-155.60554687 28.86496094 -155.21109375 29.72992188 -154.8046875 30.62109375 C-152.52777592 34.88414249 -149.58694728 37.74090194 -146.125 41.0625 C-145.51269531 41.66126953 -144.90039062 42.26003906 -144.26953125 42.87695312 C-143.07217756 44.04738559 -141.8707964 45.21371496 -140.66503906 46.37548828 C-139.16038108 47.84352263 -137.69843674 49.35502691 -136.2421875 50.87109375 C-134.10665924 53.19994208 -134.10665924 53.19994208 -131 54 C-129.5393715 51.35261084 -129 50.10551666 -129 47 C-128.32324219 46.80921875 -127.64648438 46.6184375 -126.94921875 46.421875 C-122.80736881 44.4250096 -120.02160632 41.4959926 -116.8125 38.25 C-116.18408203 37.6415625 -115.55566406 37.033125 -114.90820312 36.40625 C-111.27853174 32.77269662 -109.37416263 30.05631112 -108 25 C-105.875 24.125 -105.875 24.125 -104 24 C-104 23.34 -104 22.68 -104 22 C-103.38125 21.87625 -102.7625 21.7525 -102.125 21.625 C-99.80879168 21.12802644 -99.80879168 21.12802644 -98 19 C-95 17 -95 17 -92 16 C-91.58363281 15.55527344 -91.16726563 15.11054687 -90.73828125 14.65234375 C-88.23813967 12.27580468 -85.28622666 10.99029457 -82.1875 9.5625 C-81.5267749 9.25610596 -80.8660498 8.94971191 -80.18530273 8.6340332 C-73.6295134 5.68560458 -66.97244157 3.75200381 -60 2 C-59.29875 1.79761719 -58.5975 1.59523438 -57.875 1.38671875 C-39.46559101 -3.81076525 -18.68535704 -3.39925704 0 0 Z M-31 -1 C-31 -0.67 -31 -0.34 -31 0 C-27.7 0 -24.4 0 -21 0 C-21 -0.33 -21 -0.66 -21 -1 C-24.3 -1 -27.6 -1 -31 -1 Z M-41 0 C-41 0.33 -41 0.66 -41 1 C-39.35 1 -37.7 1 -36 1 C-36 0.67 -36 0.34 -36 0 C-37.65 0 -39.3 0 -41 0 Z M-16 0 C-16 0.33 -16 0.66 -16 1 C-14.35 1 -12.7 1 -11 1 C-11 0.67 -11 0.34 -11 0 C-12.65 0 -14.3 0 -16 0 Z M-244 1 C-244 1.33 -244 1.66 -244 2 C-240.37 2 -236.74 2 -233 2 C-233 1.67 -233 1.34 -233 1 C-236.63 1 -240.26 1 -244 1 Z M-254 2 C-254 2.33 -254 2.66 -254 3 C-252.35 3 -250.7 3 -249 3 C-249 2.67 -249 2.34 -249 2 C-250.65 2 -252.3 2 -254 2 Z M-227 2 C-227 2.33 -227 2.66 -227 3 C-225.35 3 -223.7 3 -222 3 C-222 2.67 -222 2.34 -222 2 C-223.65 2 -225.3 2 -227 2 Z M88 68 C89 70 89 70 89 70 Z M89 70 C90 72 90 72 90 72 Z M90 72 C91 74 91 74 91 74 Z M91 74 C92 76 92 76 92 76 Z M92 76 C93 78 93 78 93 78 Z M93 78 C94 81 94 81 94 81 Z M94 81 C95 83 95 83 95 83 Z M95 83 C96 86 96 86 96 86 Z M96 86 C97 89 97 89 97 89 Z M97 89 C98 92 98 92 98 92 Z M98 92 C99 95 99 95 99 95 Z M99 95 C100 99 100 99 100 99 Z M100 99 C100.33 102.3 100.66 105.6 101 109 C101.33 109 101.66 109 102 109 C101.67 105.7 101.34 102.4 101 99 C100.67 99 100.34 99 100 99 Z M102 109 C102 111.64 102 114.28 102 117 C102.33 117 102.66 117 103 117 C103 114.36 103 111.72 103 109 C102.67 109 102.34 109 102 109 Z M103 117 C103 128.22 103 139.44 103 151 C103.33 151 103.66 151 104 151 C104 139.78 104 128.56 104 117 C103.67 117 103.34 117 103 117 Z M102 151 C102 153.97 102 156.94 102 160 C102.33 160 102.66 160 103 160 C103 157.03 103 154.06 103 151 C102.67 151 102.34 151 102 151 Z M101 160 C101 161.98 101 163.96 101 166 C101.33 166 101.66 166 102 166 C102 164.02 102 162.04 102 160 C101.67 160 101.34 160 101 160 Z M100 166 C100 167.98 100 169.96 100 172 C100.33 172 100.66 172 101 172 C101 170.02 101 168.04 101 166 C100.67 166 100.34 166 100 166 Z M99 172 C99 173.65 99 175.3 99 177 C99.33 177 99.66 177 100 177 C100 175.35 100 173.7 100 172 C99.67 172 99.34 172 99 172 Z M98 177 C99 181 99 181 99 181 Z M97 181 C98 185 98 185 98 185 Z M96 185 C97 189 97 189 97 189 Z M95 189 C96 192 96 192 96 192 Z M94 192 C95 195 95 195 95 195 Z M93 195 C94 199 94 199 94 199 Z M92 199 C93 202 93 202 93 202 Z M91 202 C92 204 92 204 92 204 Z M90 204 C91 207 91 207 91 207 Z M89 207 C90 210 90 210 90 210 Z M88 210 C89 212 89 212 89 212 Z M87 212 C88 215 88 215 88 215 Z M86 215 C87 217 87 217 87 217 Z M85 217 C86 219 86 219 86 219 Z M-343 226 C-342 228 -342 228 -342 228 Z M-340 231 C-339 233 -339 233 -339 233 Z " fill="#F2B7B8" transform="translate(388,63)"/>
<path d="M0 0 C0.66 0.33 1.32 0.66 2 1 C0.88190144 4.46554926 -0.32092325 7.88465274 -1.62109375 11.28515625 C-18.2505494 54.87945174 -11.2065215 100.10098986 6.984375 142.1875 C8.93052645 146.7101947 10.52811622 151.30358471 12 156 C11.34 156 10.68 156 10 156 C4.86690672 145.56676011 0.59348198 135.05803234 -3 124 C-3.22429688 123.31711914 -3.44859375 122.63423828 -3.6796875 121.93066406 C-7.49950043 110.15103506 -9.90763361 98.19401605 -12 86 C-12.176521 85.08001221 -12.35304199 84.16002441 -12.53491211 83.2121582 C-13.07604066 79.47482048 -13.19833705 75.79170137 -13.23828125 72.0234375 C-13.2480751 71.26440628 -13.25786896 70.50537506 -13.26795959 69.7233429 C-13.53130659 44.02824706 -10.21997932 23.68487788 0 0 Z " fill="#F0B7B8" transform="translate(32,133)"/>
<path d="M0 0 C0.99 0.33 1.98 0.66 3 1 C-0.87557774 5.79833434 -4.92483886 10.42907477 -10 14 C-10.66 14 -11.32 14 -12 14 C-11 11 -11 11 -9.171875 10.03125 C-8.09679687 9.52078125 -8.09679687 9.52078125 -7 9 C-5.04804163 7.36151777 -5.04804163 7.36151777 -3.25 5.5 C-2.63640625 4.8915625 -2.0228125 4.283125 -1.390625 3.65625 C0.21434088 2.10515723 0.21434088 2.10515723 0 0 Z " fill="#F1B7B8" transform="translate(274,93)"/>
<path d="M0 0 C0.66 0.33 1.32 0.66 2 1 C0.68938409 5.23429756 -0.94356259 9.07407404 -3 13 C-3.66 12.67 -4.32 12.34 -5 12 C-3.68938409 7.76570244 -2.05643741 3.92592596 0 0 Z " fill="#F0B7B7" transform="translate(471,287)"/>
<path d="M0 0 C2.88263924 1.44131962 4.37875584 3.8152462 6.3671875 6.30859375 C8.11574792 8.11990156 9.70219852 9.01025434 12 10 C11.67 10.99 11.34 11.98 11 13 C6.47384007 9.32167983 2.60575001 5.58913637 -1 1 C-0.67 0.67 -0.34 0.34 0 0 Z " fill="#F2B6B8" transform="translate(236,95)"/>
<path d="M0 0 C0 3 0 3 -1.3125 4.60546875 C-1.869375 5.12753906 -2.42625 5.64960938 -3 6.1875 C-3.556875 6.71730469 -4.11375 7.24710937 -4.6875 7.79296875 C-5.120625 8.19128906 -5.55375 8.58960938 -6 9 C-6.66 8.67 -7.32 8.34 -8 8 C-5.36 5.36 -2.72 2.72 0 0 Z " fill="#F2B8B9" transform="translate(425,356)"/>
<path d="M0 0 C0.99 0.99 1.98 1.98 3 3 C2.67 3.99 2.34 4.98 2 6 C1.01 4.68 0.02 3.36 -1 2 C-0.67 1.34 -0.34 0.68 0 0 Z " fill="#F2B8B9" transform="translate(51,302)"/>
<path d="M0 0 C0.66 0.66 1.32 1.32 2 2 C1.01 3.32 0.02 4.64 -1 6 C-1.33 5.01 -1.66 4.02 -2 3 C-1.34 2.01 -0.68 1.02 0 0 Z " fill="#F1B7B7" transform="translate(463,303)"/>
<path d="M0 0 C0.66 0.33 1.32 0.66 2 1 C1.34 2.32 0.68 3.64 0 5 C-0.33 4.01 -0.66 3.02 -1 2 C-0.67 1.34 -0.34 0.68 0 0 Z " fill="#EFB7B8" transform="translate(465,299)"/>
<path d="M0 0 C0.66 1.32 1.32 2.64 2 4 C1.01 4.495 1.01 4.495 0 5 C-0.5625 3.0625 -0.5625 3.0625 -1 1 C-0.67 0.67 -0.34 0.34 0 0 Z " fill="#F0B7B7" transform="translate(49,298)"/>
<path d="M0 0 C0 0.99 0 1.98 0 3 C-0.66 3.66 -1.32 4.32 -2 5 C-2.33 4.34 -2.66 3.68 -3 3 C-2.01 2.01 -1.02 1.02 0 0 Z " fill="#F2B9B9" transform="translate(36,129)"/>
<path d="M0 0 C0.66 0.33 1.32 0.66 2 1 C1.67 1.66 1.34 2.32 1 3 C0.01 3.33 -0.98 3.66 -2 4 C-1.34 2.68 -0.68 1.36 0 0 Z " fill="#F2B7B7" transform="translate(439,338)"/>
<path d="M0 0 C0.66 0.33 1.32 0.66 2 1 C1.67 1.99 1.34 2.98 1 4 C0.34 3.67 -0.32 3.34 -1 3 C-0.67 2.01 -0.34 1.02 0 0 Z " fill="#EEB8B7" transform="translate(449,325)"/>
<path d="M0 0 C1.32 0.33 2.64 0.66 4 1 C3.67 1.66 3.34 2.32 3 3 C2.01 2.67 1.02 2.34 0 2 C0 1.34 0 0.68 0 0 Z " fill="#F1B7B7" transform="translate(250,111)"/>
<path d="M0 0 C0.66 0.66 1.32 1.32 2 2 C1.34 2.66 0.68 3.32 0 4 C0 2.68 0 1.36 0 0 Z " fill="#EEB8BA" transform="translate(459,310)"/>
<path d="M0 0 C0.66 0.33 1.32 0.66 2 1 C1.67 1.99 1.34 2.98 1 4 C0.34 3.01 -0.32 2.02 -1 1 C-0.67 0.67 -0.34 0.34 0 0 Z " fill="#F0B7BA" transform="translate(54,307)"/>
<path d="M0 0 C1.32 0 2.64 0 4 0 C3.67 0.99 3.34 1.98 3 3 C2.01 2.01 1.02 1.02 0 0 Z " fill="#F1B7B9" transform="translate(254,114)"/>
<path d="M0 0 C1.485 0.99 1.485 0.99 3 2 C2.67 2.66 2.34 3.32 2 4 C1.34 2.68 0.68 1.36 0 0 Z " fill="#F2B6B7" transform="translate(78,340)"/>
<path d="M0 0 C0.66 0.33 1.32 0.66 2 1 C1.67 1.66 1.34 2.32 1 3 C0.34 3 -0.32 3 -1 3 C-0.67 2.01 -0.34 1.02 0 0 Z " fill="#F2B6B6" transform="translate(70,330)"/>
<path d="M0 0 C0.66 0.33 1.32 0.66 2 1 C1.67 1.66 1.34 2.32 1 3 C0.34 3 -0.32 3 -1 3 C-0.67 2.01 -0.34 1.02 0 0 Z " fill="#EFB8B8" transform="translate(446,329)"/>
<path d="M0 0 C0.66 0.33 1.32 0.66 2 1 C1.67 1.66 1.34 2.32 1 3 C0.34 3 -0.32 3 -1 3 C-0.67 2.01 -0.34 1.02 0 0 Z " fill="#F2B7B7" transform="translate(451,322)"/>
<path d="M0 0 C0.66 0.33 1.32 0.66 2 1 C1.67 1.66 1.34 2.32 1 3 C0.34 3 -0.32 3 -1 3 C-0.67 2.01 -0.34 1.02 0 0 Z " fill="#F3B6B8" transform="translate(64,322)"/>
<path d="M0 0 C0.66 0.33 1.32 0.66 2 1 C1.67 1.66 1.34 2.32 1 3 C0.34 3 -0.32 3 -1 3 C-0.67 2.01 -0.34 1.02 0 0 Z " fill="#F0B6B8" transform="translate(457,313)"/>
<path d="M0 0 C0.99 0 1.98 0 3 0 C2.67 0.99 2.34 1.98 2 3 C1.34 2.67 0.68 2.34 0 2 C0 1.34 0 0.68 0 0 Z " fill="#F1B6B9" transform="translate(37,124)"/>
<path d="M0 0 C0.99 0 1.98 0 3 0 C2.67 0.99 2.34 1.98 2 3 C1.34 2.67 0.68 2.34 0 2 C0 1.34 0 0.68 0 0 Z " fill="#F0B7B7" transform="translate(41,118)"/>
<path d="M0 0 C0.99 0 1.98 0 3 0 C2.67 0.99 2.34 1.98 2 3 C1.34 2.67 0.68 2.34 0 2 C0 1.34 0 0.68 0 0 Z " fill="#F2B9BA" transform="translate(467,115)"/>
<path d="M0 0 C0.99 0 1.98 0 3 0 C2.67 0.99 2.34 1.98 2 3 C1.34 2.67 0.68 2.34 0 2 C0 1.34 0 0.68 0 0 Z " fill="#EFB7B8" transform="translate(44,114)"/>
<path d="M0 0 C1.485 0.99 1.485 0.99 3 2 C2.01 2 1.02 2 0 2 C0 1.34 0 0.68 0 0 Z " fill="#F1B7B8" transform="translate(473,124)"/>
<path d="M0 0 C0 3 0 3 0 3 Z " fill="#F2B7B8" transform="translate(60,316)"/>
<path d="M0 0 C0 3 0 3 0 3 Z " fill="#F2B6B9" transform="translate(58,313)"/>
<path d="M0 0 C0.99 0.495 0.99 0.495 2 1 C1.67 1.66 1.34 2.32 1 3 C0.67 2.01 0.34 1.02 0 0 Z " fill="#F0B7B7" transform="translate(460,308)"/>
<path d="M0 0 C0.99 0.495 0.99 0.495 2 1 C1.67 1.66 1.34 2.32 1 3 C0.67 2.01 0.34 1.02 0 0 Z " fill="#EEB9B8" transform="translate(472,285)"/>
<path d="M0 0 C0 3 0 3 0 3 Z " fill="#EFB6B8" transform="translate(476,126)"/>
<path d="M0 0 C0.99 0.495 0.99 0.495 2 1 C1.67 1.66 1.34 2.32 1 3 C0.67 2.01 0.34 1.02 0 0 Z " fill="#EEB8B9" transform="translate(36,126)"/>
<path d="M0 0 C0.99 0.495 0.99 0.495 2 1 C1.01 1.495 1.01 1.495 0 2 C0 1.34 0 0.68 0 0 Z " fill="#F2B6B9" transform="translate(55,101)"/>
<path d="M0 0 C0.99 0.495 0.99 0.495 2 1 C1.01 1.495 1.01 1.495 0 2 C0 1.34 0 0.68 0 0 Z " fill="#F1B6B8" transform="translate(57,99)"/>
<path d="M0 0 C2 1 2 1 2 1 Z " fill="#EBB8BA" transform="translate(112,377)"/>
<path d="M0 0 C2 1 2 1 2 1 Z " fill="#EDB7B8" transform="translate(406,374)"/>
<path d="" fill="#EDB8B9" transform="translate(0,0)"/>
<path d="" fill="#EAB9BA" transform="translate(0,0)"/>
<path d="" fill="#ECB7B6" transform="translate(0,0)"/>
<path d="M0 0 C2 1 2 1 2 1 Z " fill="#EEB8B8" transform="translate(446,91)"/>
<path d="" fill="#EDBABB" transform="translate(0,0)"/>
<path d="" fill="#ECB7B9" transform="translate(0,0)"/>
<path d="" fill="#EDBABD" transform="translate(0,0)"/>
<path d="" fill="#EBB9BA" transform="translate(0,0)"/>
<path d="" fill="#EAB8B9" transform="translate(0,0)"/>
<path d="" fill="#F3B8B7" transform="translate(0,0)"/>
<path d="" fill="#E9BCBB" transform="translate(0,0)"/>
<path d="" fill="#EBBAB8" transform="translate(0,0)"/>
<path d="" fill="#F2B6B8" transform="translate(0,0)"/>
<path d="" fill="#EABABA" transform="translate(0,0)"/>
<path d="" fill="#EEBBBC" transform="translate(0,0)"/>
<path d="" fill="#F1B8BB" transform="translate(0,0)"/>
<path d="" fill="#E9B8BB" transform="translate(0,0)"/>
<path d="" fill="#EEBBBC" transform="translate(0,0)"/>
<path d="" fill="#F2B6B8" transform="translate(0,0)"/>
<path d="" fill="#EFB8B8" transform="translate(0,0)"/>
<path d="" fill="#EBB9BA" transform="translate(0,0)"/>
<path d="" fill="#EDBABB" transform="translate(0,0)"/>
<path d="" fill="#F1B8B9" transform="translate(0,0)"/>
<path d="" fill="#F1BABA" transform="translate(0,0)"/>
<path d="" fill="#E8BABC" transform="translate(0,0)"/>
<path d="" fill="#ECBCBC" transform="translate(0,0)"/>
<path d="" fill="#F2B6B8" transform="translate(0,0)"/>
<path d="" fill="#EABABA" transform="translate(0,0)"/>
<path d="" fill="#EAB8BB" transform="translate(0,0)"/>
<path d="" fill="#EFB8B8" transform="translate(0,0)"/>
<path d="" fill="#F2B6B8" transform="translate(0,0)"/>
<path d="" fill="#ECB8B7" transform="translate(0,0)"/>
<path d="" fill="#F0B9BB" transform="translate(0,0)"/>
<path d="" fill="#F1BABA" transform="translate(0,0)"/>
<path d="" fill="#EBB9BA" transform="translate(0,0)"/>
<path d="" fill="#F3B8B7" transform="translate(0,0)"/>
<path d="" fill="#EDBABB" transform="translate(0,0)"/>
<path d="" fill="#EFB8B8" transform="translate(0,0)"/>
<path d="" fill="#F3B7B9" transform="translate(0,0)"/>
<path d="" fill="#F0B7BA" transform="translate(0,0)"/>
<path d="" fill="#EFB8BA" transform="translate(0,0)"/>
<path d="" fill="#EBBBBB" transform="translate(0,0)"/>
<path d="" fill="#F1B6B5" transform="translate(0,0)"/>
<path d="" fill="#EABABA" transform="translate(0,0)"/>
<path d="" fill="#F3B7B9" transform="translate(0,0)"/>
<path d="" fill="#EDBABB" transform="translate(0,0)"/>
<path d="" fill="#EBBAB8" transform="translate(0,0)"/>
<path d="" fill="#EBB9BA" transform="translate(0,0)"/>
<path d="" fill="#F1B9B7" transform="translate(0,0)"/>
<path d="" fill="#EBB9BA" transform="translate(0,0)"/>
<path d="" fill="#F0B9B9" transform="translate(0,0)"/>
<path d="" fill="#F2B6B8" transform="translate(0,0)"/>
<path d="" fill="#F3B8B7" transform="translate(0,0)"/>
<path d="" fill="#F1B8BB" transform="translate(0,0)"/>
<path d="" fill="#EFB8B8" transform="translate(0,0)"/>
<path d="" fill="#F0B9BB" transform="translate(0,0)"/>
<path d="" fill="#F3B7B9" transform="translate(0,0)"/>
<path d="" fill="#F1B5B7" transform="translate(0,0)"/>
<path d="" fill="#EDBDBE" transform="translate(0,0)"/>
<path d="" fill="#F2B6B8" transform="translate(0,0)"/>
<path d="" fill="#F0B7B8" transform="translate(0,0)"/>
<path d="" fill="#EBB9BA" transform="translate(0,0)"/>
<path d="" fill="#F1B4B4" transform="translate(0,0)"/>
<path d="" fill="#EBBBBB" transform="translate(0,0)"/>
<path d="" fill="#F3B8B7" transform="translate(0,0)"/>
<path d="" fill="#EDBABB" transform="translate(0,0)"/>
<path d="" fill="#F2B6B8" transform="translate(0,0)"/>
<path d="" fill="#EBB9BA" transform="translate(0,0)"/>
<path d="" fill="#EABABA" transform="translate(0,0)"/>
<path d="" fill="#EEBBBC" transform="translate(0,0)"/>
<path d="" fill="#E9BCBB" transform="translate(0,0)"/>
<path d="" fill="#EBB9BA" transform="translate(0,0)"/>
<path d="" fill="#F2B6B8" transform="translate(0,0)"/>
<path d="" fill="#EABABA" transform="translate(0,0)"/>
<path d="" fill="#EBB9BA" transform="translate(0,0)"/>
<path d="" fill="#F4B9BA" transform="translate(0,0)"/>
<path d="" fill="#EABABA" transform="translate(0,0)"/>
<path d="" fill="#EDBABB" transform="translate(0,0)"/>
<path d="" fill="#F4B9BA" transform="translate(0,0)"/>
<path d="" fill="#EABABA" transform="translate(0,0)"/>
<path d="" fill="#F2B6B8" transform="translate(0,0)"/>
<path d="" fill="#EAB8B9" transform="translate(0,0)"/>
<path d="" fill="#F3B7B9" transform="translate(0,0)"/>
<path d="" fill="#EBBAB8" transform="translate(0,0)"/>
<path d="" fill="#F3B7B9" transform="translate(0,0)"/>
<path d="" fill="#EBBCB9" transform="translate(0,0)"/>
<path d="" fill="#F2B6B8" transform="translate(0,0)"/>
<path d="" fill="#EABABA" transform="translate(0,0)"/>
<path d="" fill="#F2B6B8" transform="translate(0,0)"/>
<path d="" fill="#EABABA" transform="translate(0,0)"/>
<path d="" fill="#F3B7B9" transform="translate(0,0)"/>
<path d="" fill="#EDBABB" transform="translate(0,0)"/>
<path d="" fill="#F3B7B9" transform="translate(0,0)"/>
<path d="" fill="#EDBABB" transform="translate(0,0)"/>
<path d="" fill="#F2B6B8" transform="translate(0,0)"/>
<path d="" fill="#EAB8B9" transform="translate(0,0)"/>
<path d="" fill="#F3B7B9" transform="translate(0,0)"/>
<path d="" fill="#EEB9BB" transform="translate(0,0)"/>
<path d="" fill="#EEB9BD" transform="translate(0,0)"/>
<path d="" fill="#F3B7B9" transform="translate(0,0)"/>
<path d="" fill="#EBB9BA" transform="translate(0,0)"/>
<path d="" fill="#EEB9BD" transform="translate(0,0)"/>
<path d="" fill="#F3B7B9" transform="translate(0,0)"/>
<path d="" fill="#EABABA" transform="translate(0,0)"/>
<path d="" fill="#EEBBBE" transform="translate(0,0)"/>
<path d="" fill="#F5B7B9" transform="translate(0,0)"/>
<path d="" fill="#EABABA" transform="translate(0,0)"/>
<path d="" fill="#EBB9BC" transform="translate(0,0)"/>
<path d="" fill="#F3B7B9" transform="translate(0,0)"/>
<path d="" fill="#E9BCBB" transform="translate(0,0)"/>
<path d="" fill="#EEBBBC" transform="translate(0,0)"/>
<path d="" fill="#F2B6B8" transform="translate(0,0)"/>
<path d="" fill="#EABABA" transform="translate(0,0)"/>
<path d="" fill="#EABABC" transform="translate(0,0)"/>
<path d="" fill="#F2B6B8" transform="translate(0,0)"/>
<path d="" fill="#EDBABB" transform="translate(0,0)"/>
<path d="" fill="#EABABC" transform="translate(0,0)"/>
<path d="" fill="#EBB9BA" transform="translate(0,0)"/>
<path d="" fill="#EBBBBB" transform="translate(0,0)"/>
<path d="" fill="#F3B9BA" transform="translate(0,0)"/>
<path d="" fill="#F3B8B7" transform="translate(0,0)"/>
<path d="" fill="#F0B7B6" transform="translate(0,0)"/>
<path d="" fill="#F1BABA" transform="translate(0,0)"/>
<path d="" fill="#F2B6B8" transform="translate(0,0)"/>
<path d="" fill="#F2B4B7" transform="translate(0,0)"/>
<path d="" fill="#F2B6B8" transform="translate(0,0)"/>
<path d="" fill="#F0B7B8" transform="translate(0,0)"/>
<path d="" fill="#F1BABA" transform="translate(0,0)"/>
<path d="" fill="#F3B7B9" transform="translate(0,0)"/>
<path d="" fill="#F0B9B9" transform="translate(0,0)"/>
<path d="" fill="#F2B7B6" transform="translate(0,0)"/>
<path d="" fill="#F4B9BA" transform="translate(0,0)"/>
<path d="" fill="#F2B7B6" transform="translate(0,0)"/>
<path d="" fill="#F0B9B9" transform="translate(0,0)"/>
<path d="" fill="#F2B6B8" transform="translate(0,0)"/>
<path d="" fill="#EDBABB" transform="translate(0,0)"/>
<path d="" fill="#EAB8B9" transform="translate(0,0)"/>
<path d="" fill="#F1B8B9" transform="translate(0,0)"/>
<path d="" fill="#EBBBBB" transform="translate(0,0)"/>
<path d="" fill="#EDBABB" transform="translate(0,0)"/>
<path d="" fill="#F3B5B8" transform="translate(0,0)"/>
<path d="" fill="#EABABA" transform="translate(0,0)"/>
<path d="" fill="#EDBABB" transform="translate(0,0)"/>
<path d="" fill="#EFB6B5" transform="translate(0,0)"/>
<path d="" fill="#F1B8B9" transform="translate(0,0)"/>
<path d="" fill="#F2B6B8" transform="translate(0,0)"/>
<path d="" fill="#EFB8B8" transform="translate(0,0)"/>
<path d="" fill="#F1B5B7" transform="translate(0,0)"/>
<path d="" fill="#F2B6B8" transform="translate(0,0)"/>
<path d="" fill="#F0B9BB" transform="translate(0,0)"/>
<path d="" fill="#EDBABB" transform="translate(0,0)"/>
<path d="" fill="#F5B7B7" transform="translate(0,0)"/>
<path d="" fill="#EDB8BA" transform="translate(0,0)"/>
<path d="" fill="#F3B8B7" transform="translate(0,0)"/>
<path d="" fill="#F2B6B8" transform="translate(0,0)"/>
<path d="" fill="#EFB8B8" transform="translate(0,0)"/>
<path d="" fill="#F2B6B8" transform="translate(0,0)"/>
<path d="" fill="#EFB6B7" transform="translate(0,0)"/>
<path d="" fill="#EBB9BA" transform="translate(0,0)"/>
<path d="" fill="#EBBBBD" transform="translate(0,0)"/>
<path d="" fill="#F0B9BB" transform="translate(0,0)"/>
<path d="" fill="#EFB8B8" transform="translate(0,0)"/>
<path d="" fill="#F0B7B8" transform="translate(0,0)"/>
<path d="" fill="#EBBBBB" transform="translate(0,0)"/>
<path d="" fill="#EEB9BB" transform="translate(0,0)"/>
<path d="" fill="#F3B7B9" transform="translate(0,0)"/>
<path d="" fill="#EFB6B7" transform="translate(0,0)"/>
<path d="" fill="#EDBABB" transform="translate(0,0)"/>
<path d="" fill="#F5B7B7" transform="translate(0,0)"/>
<path d="" fill="#EABABA" transform="translate(0,0)"/>
<path d="" fill="#EDBABB" transform="translate(0,0)"/>
<path d="" fill="#EFB8B8" transform="translate(0,0)"/>
<path d="" fill="#F2B6B8" transform="translate(0,0)"/>
<path d="" fill="#F3B8B7" transform="translate(0,0)"/>
<path d="" fill="#ECBCBE" transform="translate(0,0)"/>
<path d="" fill="#EDBABD" transform="translate(0,0)"/>
<path d="" fill="#F2B6B8" transform="translate(0,0)"/>
<path d="" fill="#EEBCBA" transform="translate(0,0)"/>
<path d="" fill="#F3B8B7" transform="translate(0,0)"/>
<path d="" fill="#F2B6B8" transform="translate(0,0)"/>
<path d="" fill="#EDBABB" transform="translate(0,0)"/>
<path d="" fill="#F2B6B8" transform="translate(0,0)"/>
<path d="" fill="#EEB9BB" transform="translate(0,0)"/>
<path d="" fill="#F3B9BA" transform="translate(0,0)"/>
<path d="" fill="#F0B7B6" transform="translate(0,0)"/>
<path d="" fill="#EDBABB" transform="translate(0,0)"/>
<path d="" fill="#F3B7B9" transform="translate(0,0)"/>
<path d="" fill="#EDB7B7" transform="translate(0,0)"/>
<path d="" fill="#EFB8BA" transform="translate(0,0)"/>
<path d="" fill="#F1B5B9" transform="translate(0,0)"/>
<path d="" fill="#F3B5B8" transform="translate(0,0)"/>
<path d="" fill="#F1B5B7" transform="translate(0,0)"/>
<path d="" fill="#F5B6BB" transform="translate(0,0)"/>
<path d="" fill="#F3B8B7" transform="translate(0,0)"/>
<path d="" fill="#F3B5B8" transform="translate(0,0)"/>
<path d="" fill="#F5B7B9" transform="translate(0,0)"/>
<path d="" fill="#EABAB8" transform="translate(0,0)"/>
<path d="" fill="#F1B8BB" transform="translate(0,0)"/>
<path d="" fill="#F2B6BA" transform="translate(0,0)"/>
<path d="" fill="#F2B7B6" transform="translate(0,0)"/>
<path d="" fill="#EFB8B8" transform="translate(0,0)"/>
<path d="" fill="#F2B6BA" transform="translate(0,0)"/>
<path d="" fill="#F2B7B6" transform="translate(0,0)"/>
<path d="" fill="#EABABA" transform="translate(0,0)"/>
<path d="" fill="#F0B7B6" transform="translate(0,0)"/>
<path d="" fill="#F1B6B5" transform="translate(0,0)"/>
<path d="" fill="#F2B6B8" transform="translate(0,0)"/>
<path d="" fill="#F1B8B9" transform="translate(0,0)"/>
<path d="" fill="#EDBABB" transform="translate(0,0)"/>
<path d="" fill="#F1B8B9" transform="translate(0,0)"/>
<path d="" fill="#EBB9BA" transform="translate(0,0)"/>
<path d="" fill="#F2B6BA" transform="translate(0,0)"/>
<path d="" fill="#EBB9BC" transform="translate(0,0)"/>
<path d="" fill="#EDBABD" transform="translate(0,0)"/>
<path d="" fill="#EABABA" transform="translate(0,0)"/>
<path d="" fill="#F2B6BA" transform="translate(0,0)"/>
<path d="" fill="#EBB9BC" transform="translate(0,0)"/>
<path d="" fill="#EBB9BA" transform="translate(0,0)"/>
<path d="" fill="#E8BABC" transform="translate(0,0)"/>
<path d="" fill="#EABABA" transform="translate(0,0)"/>
<path d="" fill="#F2B6B8" transform="translate(0,0)"/>
<path d="" fill="#EDBABD" transform="translate(0,0)"/>
<path d="" fill="#E6B8B8" transform="translate(0,0)"/>
<path d="" fill="#E9BCBD" transform="translate(0,0)"/>
<path d="" fill="#EABABA" transform="translate(0,0)"/>
<path d="" fill="#F3B7B9" transform="translate(0,0)"/>
<path d="" fill="#E7BAB9" transform="translate(0,0)"/>
<path d="" fill="#F4B9B8" transform="translate(0,0)"/>
<path d="" fill="#E9B8BB" transform="translate(0,0)"/>
<path d="" fill="#EBBBBB" transform="translate(0,0)"/>
<path d="" fill="#F3B7B9" transform="translate(0,0)"/>
<path d="" fill="#EDBABB" transform="translate(0,0)"/>
<path d="" fill="#F4B9B8" transform="translate(0,0)"/>
<path d="" fill="#EABABA" transform="translate(0,0)"/>
<path d="" fill="#EABABA" transform="translate(0,0)"/>
<path d="" fill="#F2B6B8" transform="translate(0,0)"/>
<path d="" fill="#EEB9BB" transform="translate(0,0)"/>
<path d="" fill="#EBB9BA" transform="translate(0,0)"/>
<path d="" fill="#EAB8B9" transform="translate(0,0)"/>
<path d="" fill="#F2B6B8" transform="translate(0,0)"/>
<path d="" fill="#EBB9BA" transform="translate(0,0)"/>
<path d="" fill="#EBB9BA" transform="translate(0,0)"/>
<path d="" fill="#EAB8BB" transform="translate(0,0)"/>
<path d="" fill="#F3B8B7" transform="translate(0,0)"/>
<path d="" fill="#EDBABB" transform="translate(0,0)"/>
<path d="" fill="#EDBABB" transform="translate(0,0)"/>
<path d="" fill="#EABABA" transform="translate(0,0)"/>
<path d="" fill="#EBB9BC" transform="translate(0,0)"/>
<path d="" fill="#F3B8B7" transform="translate(0,0)"/>
<path d="" fill="#EFBDBC" transform="translate(0,0)"/>
<path d="" fill="#EBB9BA" transform="translate(0,0)"/>
<path d="" fill="#EBBBBB" transform="translate(0,0)"/>
<path d="" fill="#EAB8B9" transform="translate(0,0)"/>
<path d="" fill="#EDBBB9" transform="translate(0,0)"/>
<path d="" fill="#EDBABB" transform="translate(0,0)"/>
<path d="" fill="#E9B9B9" transform="translate(0,0)"/>
<path d="" fill="#F3B5B8" transform="translate(0,0)"/>
<path d="" fill="#EBBBBB" transform="translate(0,0)"/>
<path d="" fill="#EDBABD" transform="translate(0,0)"/>
<path d="" fill="#EABABC" transform="translate(0,0)"/>
<path d="" fill="#F2B6BA" transform="translate(0,0)"/>
<path d="" fill="#E8BABC" transform="translate(0,0)"/>
<path d="" fill="#EBBBBD" transform="translate(0,0)"/>
<path d="" fill="#F2B6B8" transform="translate(0,0)"/>
<path d="" fill="#F3B7B9" transform="translate(0,0)"/>
<path d="" fill="#EABABA" transform="translate(0,0)"/>
<path d="" fill="#E7B8B8" transform="translate(0,0)"/>
<path d="" fill="#F2B6B8" transform="translate(0,0)"/>
<path d="" fill="#F0B9BB" transform="translate(0,0)"/>
<path d="" fill="#F0B7BA" transform="translate(0,0)"/>
<path d="" fill="#F3B5B8" transform="translate(0,0)"/>
<path d="" fill="#F3B7B9" transform="translate(0,0)"/>
<path d="" fill="#F2B4B7" transform="translate(0,0)"/>
<path d="" fill="#F3B7BB" transform="translate(0,0)"/>
<path d="" fill="#F1BABA" transform="translate(0,0)"/>
<path d="" fill="#EFB8BA" transform="translate(0,0)"/>
<path d="" fill="#EDB6B9" transform="translate(0,0)"/>
<path d="" fill="#F2B6B8" transform="translate(0,0)"/>
<path d="" fill="#F3B9BA" transform="translate(0,0)"/>
<path d="" fill="#EDBABD" transform="translate(0,0)"/>
<path d="" fill="#F1B5B7" transform="translate(0,0)"/>
<path d="" fill="#EFB8BA" transform="translate(0,0)"/>
<path d="" fill="#E9B8BB" transform="translate(0,0)"/>
<path d="" fill="#EDB8BA" transform="translate(0,0)"/>
<path d="" fill="#EBB9BA" transform="translate(0,0)"/>
<path d="" fill="#EBBCB9" transform="translate(0,0)"/>
<path d="" fill="#EDBABB" transform="translate(0,0)"/>
<path d="" fill="#EDB6B9" transform="translate(0,0)"/>
<path d="" fill="#E9BCBB" transform="translate(0,0)"/>
<path d="" fill="#EBB9BA" transform="translate(0,0)"/>
<path d="" fill="#F2B6B8" transform="translate(0,0)"/>
<path d="" fill="#F0B7B8" transform="translate(0,0)"/>
<path d="" fill="#EFB6B9" transform="translate(0,0)"/>
<path d="" fill="#E8BABC" transform="translate(0,0)"/>
<path d="" fill="#F2B7B6" transform="translate(0,0)"/>
<path d="" fill="#F5B5B8" transform="translate(0,0)"/>
<path d="" fill="#EBB9BA" transform="translate(0,0)"/>
<path d="" fill="#F0B7B8" transform="translate(0,0)"/>
<path d="" fill="#E8BBBA" transform="translate(0,0)"/>
<path d="" fill="#EEBBBC" transform="translate(0,0)"/>
<path d="" fill="#F3B5B8" transform="translate(0,0)"/>
<path d="" fill="#EFB6B9" transform="translate(0,0)"/>
<path d="" fill="#E9B8BB" transform="translate(0,0)"/>
<path d="" fill="#F5B7B9" transform="translate(0,0)"/>
<path d="" fill="#EABABC" transform="translate(0,0)"/>
<path d="" fill="#E9B8BB" transform="translate(0,0)"/>
<path d="" fill="#E9BCBD" transform="translate(0,0)"/>
<path d="" fill="#EABABC" transform="translate(0,0)"/>
</svg>
